<svg width="500" height="141" viewBox="0 0 500 141" fill="none" xmlns="http://www.w3.org/2000/svg">
  <g transform="translate(100, 30) scale(1.5)">
    <clipPath id="clip0_logo_primary">
      <rect fill="white" height="70" width="250" />
    </clipPath>
    <g clipPath="url(#clip0_logo_primary)">
      <path d="M30.8184 8.11475H9.84082V19.2056H28.7725V27.3188H9.84082V46.5464H0V15.5005L15.499 0.00146484H30.8184V8.11475ZM0 11.2583V0.00146484H11.2568L0 11.2583Z" fill="#001F3F" />
      <path d="M34.71 0H45.7327L56.3463 20.0455H56.8009L67.4145 0H78.4372L61.46 30.0909V46.5455H51.6872V30.0909L34.71 0Z" fill="#001F3F" />
      <path d="M83.8125 46.5455V0H102.176C105.691 0 108.691 0.628788 111.176 1.88636C113.676 3.12879 115.578 4.89394 116.881 7.18182C118.199 9.45455 118.858 12.1288 118.858 15.2045C118.858 18.2955 118.191 20.9545 116.858 23.1818C115.525 25.3939 113.593 27.0909 111.062 28.2727C108.547 29.4545 105.502 30.0455 101.926 30.0455H89.6307V22.1364H100.335C102.214 22.1364 103.775 21.8788 105.017 21.3636C106.259 20.8485 107.184 20.0758 107.79 19.0455C108.411 18.0152 108.722 16.7348 108.722 15.2045C108.722 13.6591 108.411 12.3561 107.79 11.2955C107.184 10.2348 106.252 9.43182 104.994 8.88636C103.752 8.32576 102.184 8.04546 100.29 8.04546H93.6534V46.5455H83.8125ZM108.949 25.3636L120.517 46.5455H109.653L98.3352 25.3636H108.949Z" fill="#001F3F" />
      <path d="M125.812 46.5455V0H135.653V20.5227H136.267L153.017 0H164.812L147.54 20.8409L165.017 46.5455H153.244L140.494 27.4091L135.653 33.3182V46.5455H125.812Z" fill="#001F3F" />
    </g>
  </g>
</svg>